<svg xmlns="http://www.w3.org/2000/svg" width="430" height="430" fill="none" viewBox="0 0 430 430"><g stroke-width="12"><circle cx="215" cy="215" r="167.5" stroke="#e4e4e4"/><path stroke="#121331" stroke-linejoin="round" d="M320.35 236.498A108 108 0 0 0 322.5 215c0-7.362-.74-14.552-2.15-21.498v-.002H223.6v43h46.494c-8.6 22.023-30.025 37.625-55.094 37.625-32.654 0-59.125-26.471-59.125-59.125s26.471-59.125 59.125-59.125c13.195 0 25.381 4.323 35.218 11.629l34.155-34.627C265.65 117.045 241.44 107.5 215 107.5c-59.371 0-107.5 48.129-107.5 107.5S155.629 322.5 215 322.5c52.008 0 95.389-36.932 105.35-86z"/></g></svg>